<svg width="256" height="256" viewBox="0 0 256 256" fill="none" xmlns="http://www.w3.org/2000/svg">
  <defs>
    <linearGradient id="mark-dark" x1="58" y1="42" x2="202" y2="198" gradientUnits="userSpaceOnUse">
      <stop stop-color="#082A55"/>
      <stop offset="1" stop-color="#113E76"/>
    </linearGradient>
    <linearGradient id="mark-light" x1="47" y1="201" x2="208" y2="40" gradientUnits="userSpaceOnUse">
      <stop stop-color="#1185D8"/>
      <stop offset="1" stop-color="#38C7FF"/>
    </linearGradient>
    <radialGradient id="mark-core" cx="0" cy="0" r="1" gradientUnits="userSpaceOnUse" gradientTransform="translate(128 128) rotate(90) scale(18)">
      <stop stop-color="#A6ECFF"/>
      <stop offset="0.58" stop-color="#54D3FF"/>
      <stop offset="1" stop-color="#168CDD"/>
    </radialGradient>
    <filter id="mark-shadow" x="8" y="8" width="240" height="240" filterUnits="userSpaceOnUse" color-interpolation-filters="sRGB">
      <feDropShadow dx="0" dy="8" stdDeviation="10" flood-color="#051D38" flood-opacity="0.18"/>
    </filter>
  </defs>

  <g filter="url(#mark-shadow)">
    <path d="M79.2 45.2C66.5 45.2 56.1 55.5 56.1 68.3C56.1 74.8 58.7 81.1 63.3 85.7L169.8 192.3C174.5 196.9 180.7 199.5 187.3 199.5C200 199.5 210.4 189.2 210.4 176.4C210.4 169.8 207.8 163.6 203.2 158.9L96.7 52.5C92.1 47.8 85.8 45.2 79.2 45.2Z" fill="url(#mark-dark)"/>
    <path d="M176.8 45.2C170.2 45.2 163.9 47.8 159.3 52.4L52.8 158.9C48.2 163.6 45.6 169.8 45.6 176.4C45.6 189.2 56 199.5 68.7 199.5C75.3 199.5 81.5 196.9 86.2 192.3L192.7 85.7C197.3 81.1 199.9 74.8 199.9 68.3C199.9 55.5 189.5 45.2 176.8 45.2Z" fill="url(#mark-light)"/>

    <path d="M83.7 69.8C78.8 69.8 74.8 73.8 74.8 78.7C74.8 81.2 75.8 83.5 77.5 85.3L170.4 178.1C172.1 179.9 174.5 180.8 176.9 180.8C181.9 180.8 185.8 176.9 185.8 171.9C185.8 169.4 184.9 167.1 183.1 165.4L90.2 72.5C88.5 70.7 86.2 69.8 83.7 69.8Z" fill="white"/>
    <path d="M172.3 69.8C169.8 69.8 167.5 70.7 165.8 72.5L72.9 165.4C71.1 167.1 70.2 169.4 70.2 171.9C70.2 176.9 74.1 180.8 79.1 180.8C81.5 180.8 83.9 179.9 85.6 178.1L178.5 85.3C180.2 83.5 181.2 81.2 181.2 78.7C181.2 73.8 177.2 69.8 172.3 69.8Z" fill="white"/>

    <path d="M95.4 95.4L122.6 122.6" stroke="#0A315F" stroke-width="7.5" stroke-linecap="round"/>
    <path d="M160.6 160.6L133.4 133.4" stroke="#0A315F" stroke-width="7.5" stroke-linecap="round"/>
    <path d="M95.4 160.6L122.6 133.4" stroke="#0A315F" stroke-width="7.5" stroke-linecap="round"/>
    <path d="M160.6 95.4L133.4 122.6" stroke="#0A315F" stroke-width="7.5" stroke-linecap="round"/>

    <circle cx="95.4" cy="95.4" r="7.6" fill="#0A315F"/>
    <circle cx="160.6" cy="95.4" r="7.6" fill="#0A315F"/>
    <circle cx="95.4" cy="160.6" r="7.6" fill="#0A315F"/>
    <circle cx="160.6" cy="160.6" r="7.6" fill="#0A315F"/>
    <circle cx="128" cy="128" r="18.5" fill="#0A315F"/>
    <circle cx="128" cy="128" r="13.8" fill="url(#mark-core)"/>
  </g>
</svg>
